<svg xmlns="http://www.w3.org/2000/svg" width="418" height="418" fill="none"><path fill="#955B1F" d="M332.924 6c1.514.066 1.523.2 2.915.88 3.021 6.789 4.035 3.989 6.355 7.044.141 2.456-.715 4.325-1.497 6.689 24.133 33.809 26.887 98.077 4.396 133.492 20.72 31.896 26.724 59.278 26.916 96.532q1.022.589 2.015 1.224c7.269 4.588 21.344 16.074 23.328 24.732-.222.243-2.32 2.56-2.148 2.842 3.226 5.299 11.12 18.246 5.667 23.767-1.334.266-1.958.385-3.266.775-.214 6.965 5.664 25.132-3.416 29.537l-1.809-1.08-.799-.025c-1.019 2.693-3.339 9.471-4.227 11.63-3.268 7.944-10.425 16.589-16.698 22.254-21.953 19.823-52.076 29.827-81.1 32.883-7.448.784-17.049.074-23.917 1.208-1.562.257-11.121 4.463-14.35 5.396a159.4 159.4 0 0 1-50.02 5.839c-19.153-.846-31.369-4.864-48.889-10.865-3.914-1.34-20.424-1.167-26.14-2.019-32.702-4.876-62.508-15.449-85.282-40.3-7.572-9.274-8.83-13.364-12.91-24.418l-1.961 1.699c-4.995-.22-6.627-13.179-6.227-17.319.419-4.342 2.192-8.505 2.075-12.987-1.675.579-2.082.913-3.81.602-6.511-5.698 4.048-18.883 3.738-24.081-.637-10.664 14.633-23.895 23.946-29.225-2.642-34.387 6.049-65.551 23.647-94.841-26.294-33.418-23.683-100.489-.94-134.87-7.434-10.58.528-7.359 2.938-11.464 3.766-6.416 12.026-.484 16.36 2.025 30.033 17.387 56.114 46.156 65.007 80.208a64 64 0 0 1 4.357-2.129c33.75-14.761 69.486-13.198 103.399-.296C269.368 58.193 300.402 18.207 332.924 6"/><path fill="#FDF0DC" d="M235.096 89.119c12.601 2.725 18.99 5.74 30.447 8.912-.58-.66-1.629-1.556-1.348-2.605 7.541-28.186 26.235-53.115 48.161-71.895 2.596-2.224 16.357-11.934 19.272-11.668-.137 1.907-1.222 2.956-2.393 4.751 2.463-.5 6.222-1.843 8.029-.114.142 2.348-.384 2.852-1.553 4.883 2.691 4.767 5.098 8.895 7.284 13.94l-.449.252c-1.38-.754-5.804-8.227-8.814-11.374-12.194-2.255-23.383 23.749-27.18 32.715-8.063 19.039-9.745 38.358-9.061 58.697 5.369-2.716 7.396-3.487 13.292-5.048l-6.542 6.779c3.215.017 5.823-.279 8.702 1.027l.712 1.065c-1.844 2.599-4.986 2.886-8.153 3.637 25.672 13.336 45.864 46.436 53.996 73.304 5.704 18.845 7.765 37.258 7.641 56.802 10.725 6.373 14.025 9.609 22.543 18.93-3.884-1.257-6.199-1.821-10.191-2.653 11.119 8.708 15.067 14.577 18.488 28.188-6.017-4.173-8.368-5.525-15.211-8.065 10.54 13.464 12.74 21.473 10.884 38.444-2.15-3.01-3.334-4.822-6.051-7.416-.389 5.887-.984 13.278-4.718 20.577-19.721 38.556-69.887 52.931-110.273 53.74q-.492-.173-.983-.348l.429-1.468c-4.531.854-8.341 3.043-13.008 4.714-27.154 9.727-56.906 11.408-84.942 4.491-2.451-.604-27.175-8.768-27.224-8.735l.155.957c-2.378.975-6.808.069-9.42.006-35.944-.866-106.366-26.513-105.568-71.117l-.485.069c-1.852 1.215-4.025 4.756-5.401 6.719a69 69 0 0 1-.881-4.812c-2.096-13.927 2.575-22.928 10.411-33.636-7.345 2.679-8.895 3.629-15.01 8.536 3.051-13.966 7.117-20.275 18.3-29.214-4.31 1.072-6.317 1.624-10.437 3.27 8.015-8.875 12.198-13.722 22.64-19.675-5.379-45.608 17.64-106.778 58.289-130.891-3.278-.58-7.803-.829-9.676-3.386l.821-.984c3.191-1.246 5.52-1.19 8.929-1.441-2.927-2.463-4.192-3.459-6.651-6.513 5.682 1.389 8.6 2.668 13.673 5.321.32-9.438-.387-18.883-2.109-28.168C110.748 68 100.417 41.43 82.852 27.595c-2.525-1.989-4.714-1.95-7.66-1.266l-1.407 1.74-1.346-2.37c1.399-3.761-.991-4.974-2.654-8.466q3.93.453 7.864.86l.719-.634c-.97-2.32-1.88-3.227-3.465-5.226 34.023 16.418 60.317 45.06 73.033 80.88.673 1.893.856 2.749 1.145 4.733l-1.229 2c3.895-.889 10.532-3.598 14.516-5.03a140.6 140.6 0 0 1 20.358-5.796c10.675-2.523 43.423-3.932 52.37.099"/><path fill="#FEE4BC" d="M235.096 89.119c12.601 2.725 18.99 5.74 30.447 8.912-.58-.66-1.629-1.556-1.348-2.605 7.541-28.186 26.235-53.115 48.161-71.895 2.596-2.224 16.357-11.934 19.272-11.668-.137 1.907-1.222 2.956-2.393 4.751 2.463-.5 6.222-1.843 8.029-.114.142 2.348-.384 2.852-1.553 4.883 2.691 4.767 5.098 8.895 7.284 13.94l-.449.252c-1.38-.754-5.804-8.227-8.814-11.374-12.194-2.255-23.383 23.749-27.18 32.715-8.063 19.039-9.745 38.358-9.061 58.697 5.369-2.716 7.396-3.487 13.292-5.048l-6.542 6.779c3.215.017 5.823-.279 8.702 1.027l.712 1.065c-1.844 2.599-4.986 2.886-8.153 3.637 25.672 13.336 45.864 46.436 53.996 73.304 5.704 18.845 7.765 37.258 7.641 56.802 10.725 6.373 14.025 9.609 22.543 18.93-3.884-1.257-6.199-1.821-10.191-2.653 11.119 8.708 15.067 14.577 18.488 28.188-6.017-4.173-8.368-5.525-15.211-8.065 10.54 13.464 12.74 21.473 10.884 38.444-2.15-3.01-3.334-4.822-6.051-7.416.375-1.7-.887-3.922-1.599-5.509-5.14-11.467-15.362-17.662-26.04-23.246l13.213 2.104c-11.27-5.886-18.438-8.686-31.131-6.445 6.332-20.897 6.943-35.716.502-57.076-4.137-13.924-14.885-31.71-28.551-37.896-51.474-23.302-68.737 41.342-68.454 79.515.083 11.207 1.373 19.81 4.934 30.69-7.243-3.124-9.753-4.624-17.567-4.844-7.772-13.283-35.518-13.289-43.654.038-6.138-1.726-11.553.707-16.76 3.65q-1.466.83-2.918 1.686c15.701-40.345 1.691-135.179-60.434-112.368-14.064 5.164-26.647 23.371-31.352 36.975-7.17 20.731-7.286 39.627.45 60.036-12.72-2.882-19.952.125-30.682 7.011l-.864.562c4.657-1.139 9.833-2.758 14.376-3.663-14.128 7.389-23.47 14.848-29.322 30.193l.3 1.404-.484.069c-1.852 1.215-4.025 4.756-5.401 6.719a69 69 0 0 1-.881-4.812c-2.096-13.927 2.575-22.928 10.411-33.636-7.345 2.679-8.895 3.629-15.01 8.536 3.051-13.966 7.117-20.275 18.3-29.214-4.31 1.072-6.317 1.624-10.437 3.27 8.015-8.875 12.198-13.722 22.64-19.675-5.379-45.608 17.64-106.778 58.289-130.891-3.278-.58-7.803-.829-9.676-3.386l.821-.984c3.191-1.246 5.52-1.19 8.929-1.441-2.927-2.463-4.192-3.459-6.651-6.513 5.682 1.389 8.6 2.668 13.673 5.321.32-9.438-.387-18.883-2.109-28.168C110.748 68 100.417 41.43 82.852 27.595c-2.525-1.989-4.714-1.95-7.66-1.266l-1.407 1.74-1.346-2.37c1.399-3.761-.991-4.974-2.654-8.466q3.93.453 7.864.86l.719-.634c-.97-2.32-1.88-3.227-3.465-5.226 34.023 16.418 60.317 45.06 73.033 80.88.673 1.893.856 2.749 1.145 4.733l-1.229 2c3.895-.889 10.532-3.598 14.516-5.03a140.6 140.6 0 0 1 20.358-5.796c10.675-2.523 43.423-3.932 52.37.099"/><path fill="#D78138" d="M182.727 89.02c10.675-2.522 43.422-3.932 52.369.099l-.286.458c28.839 25.428 15.023 47.933 1.896 76.932a213 213 0 0 0-10.631 28.801c-4.855 16.816-7.331 34.787-9.845 52.058-.571 3.921-1.438 14.017-5.552 15.342-4.267-2.86-3.931-12.894-4.259-17.473-2.578-36.029-12.877-69.269-30.401-100.774-10.427-18.746-8.963-39.493 6.568-54.872z"/><path fill="#592D06" d="M129.762 165.369c7.152-.592 18.248.29 20.435 8.752-.437 1.638-1.21 3.032-3.167 2.966-16.677-.566-25.579-.281-40.528 8.725-5.459 3.651-9.237 7.2-13.986 11.705 7.571-17.19 18.832-27.79 37.246-32.148M285.05 165.459c19.722.336 34.229 14.468 41.406 31.856a654 654 0 0 0-8.098-7.338c-9.426-7.419-20.641-12.862-32.895-12.36-4.352.178-12.999 1.126-14.975-3.515.823-4.983 10.267-8.068 14.562-8.643"/><path fill="url(#a)" d="M208.796 320.577c1.986-.895 1.026-.828 2.922-.579 1.254 1.877.773 6.002.742 8.471.012 12.696 26.72 14.45 33.042 5.459 2.645-3.76.903-4.141 1.227-7.627l1.297-.76c2.078.115 1.181-.234 2.791 1.07 2.951 6.478-6.117 13.046-10.997 15.662-3.713 17.743-14.934 53.209-42.066 38.138-11.092-6.161-16.021-26.545-18.178-38.435-5.614-2.931-16.122-12.434-8.235-18.268 2.01.07 1.109-.251 2.729 1.165-1.059 6.309-.46 10.385 6.432 13.262 10.194 4.255 20.937 1.292 28.232-6.912z"/><path fill="#FE8F85" d="M210.482 334.512c3.554 3.836 6.568 6.641 12.015 7.662 1.675-.065 3.108.216 4.763.455l-2.063.412c3.488.682 7.439.407 11.027.317-1.609 8.219-3.785 13.353-7.03 21.142l-1.145 2.167c-3.075 4.944-5.789 9.186-11.14 12.027a16.1 16.1 0 0 1-12.462 1.202c-7.551-2.339-11.176-8.451-14.549-14.889-.407-1.095-.563-1.283-1.141-2.305-2.936-7.295-3.948-11.706-5.521-19.453 4.501.261 8.416.159 12.929.058.537 1.37.876 2.478 1.648 3.725l.442-.618-.262-2.7c1.315-2.029 3.323-2.245 6.007-3.34 3.192-2.329 3.89-3.046 6.482-5.862"/><path fill="#FDFDFD" d="M210.481 334.512c3.554 3.836 6.567 6.641 12.014 7.662l-.592 2.337c-1.898 5.926-2.241 7.889-8.545 9.893l-4.649-.141c-5.851-.712-8.38-2.204-10.057-7.848l-.398-.001-.262-2.7c1.315-2.029 3.323-2.245 6.006-3.34 3.193-2.329 3.891-3.046 6.483-5.862"/><path fill="#FDFDFD" d="m203.998 340.373 4.114.636.836-.213c.8 2.398 1.085 11.424-.239 13.467-5.851-.713-8.38-2.205-10.057-7.849l-.398-.001-.262-2.7c1.315-2.028 3.323-2.245 6.006-3.34"/><path fill="#D8D2CF" d="m203.998 340.373 4.114.636-.579.32c-2.623 2.36-8.003 1.624-8.881 5.085l-.398-.001-.262-2.7c1.315-2.028 3.323-2.245 6.006-3.34"/><path fill="#D6D5D4" d="M210.481 334.512c3.554 3.836 6.567 6.641 12.014 7.662l-.592 2.337c-1.154-1.32-.321-.853-1.976-1.067-2.72-.351-6.295-2.041-8.789-3.253-.351 4.175-.997 8.863-.257 12.91 1.053 1.019 1.038.914 2.477 1.303l-4.649-.141c1.324-2.042 1.039-11.068.238-13.467l-.835.214-4.114-.636c3.193-2.329 3.891-3.046 6.483-5.862"/><path fill="#A0442F" d="M225.197 343.041c3.488.682 7.439.407 11.027.317-1.609 8.219-3.785 13.353-7.03 21.142-4.085-5.666-4.843-6.39-11.288-8.608 4.664-5.286 5.792-11.663 7.291-12.851M183.236 343.248c4.501.262 8.416.159 12.929.059l.009.582c.124 4.79.88 6.289 3.043 10.426l-.511 1.196c-1.235.91-3.11 2.295-4.462 2.92-2.357 1.087-3.667 3.028-5.487 4.271-2.936-7.295-3.948-11.706-5.521-19.454"/><path fill="#4A1907" d="M222.496 342.174c1.675-.066 3.108.216 4.763.455l-2.063.412c-1.499 1.188-2.627 7.565-7.291 12.851 6.445 2.218 7.203 2.942 11.288 8.608l-1.145 2.166-1.28-2.313c-7.292-8.491-24.871-10.072-33.014-2.813-1.253 1.112-2.664 2.314-3.857 3.467-.407-1.096-.563-1.283-1.141-2.305 1.82-1.243 3.13-3.184 5.487-4.271 1.352-.625 3.227-2.01 4.462-2.919l.511-1.197c-2.163-4.137-2.919-5.636-3.043-10.426l-.009-.582c.537 1.37.876 2.477 1.648 3.725l.442-.618.399.001c1.677 5.643 4.205 7.135 10.056 7.848l4.649.141c6.305-2.004 6.647-3.968 8.546-9.893z"/><path fill="#F6766F" d="M193.754 361.539c8.143-7.258 25.722-5.677 33.014 2.814-7.742-1.927-12.128-5.855-17.553 2.217-2.263-2.38-3.376-3.276-5.995-5.286-2.936.361-6.069 1.208-9.11 1.741zM189.254 297.939c8.137-13.327 35.882-13.321 43.654-.038 1.169 12.692-9.181 18.928-19.848 22.533-.122 2.247-.207 5.938-.6 8.035.031-2.47.512-6.594-.742-8.471-1.896-.249-.937-.316-2.922.579-.499-.395-1.442-.766-1.982-1.023-10.187-4.857-18.765-9.089-17.56-21.615"/><path fill="#F5A78A" d="M197.434 292.11c9.936-2.963 26.49-4.171 33.257 5.262.611 2.27.982 2.94.438 5.25-1.399 1.845-3.268 2.704-5.67 2.644-7.454-.187-6.739 11.614-12.857 12.113-13.736 1.12-4.176-10.518-17.598-12.439l-2.494-.36c-2.103-2.032-1.748-3.2-1.695-6.058 2.005-3.424 3.227-4.4 6.619-6.412"/><path fill="#FEB5A8" d="M197.434 292.11c9.935-2.963 26.49-4.171 33.257 5.262-3.155 2.797-21.796.441-29.362 1.14-4.118.93-6.866 2.066-10.515.01 2.006-3.424 3.227-4.4 6.62-6.412"/><path fill="#FEBFAB" d="M199.964 293.471c2.015.635 3.816 1.215 5.867 1.715-2.361 1.484-4.801 2.09-7.337.715.109-1.748-.155-.892 1.47-2.43"/><path fill="url(#b)" d="M90.464 283.379c-1.575-5.824-2.707-10.781-2.737-16.84-.183-37.232 38.535-63.925 68.314-33.28 10.632 12.959 14.506 27.686 13.201 44.421-.574 7.366-3.408 18.543-9.146 23.442l-1.488-.845c-6.769 4.067-8.243 5.67-16.181 6.692-3.792.823-8.683-.539-12.549-1.328-6.419 4.125-21.545-2.966-26.113-8.266-3.623-.146-8.627-5.972-11.248-8.605-3.632-.661-5.354-.905-8.115-3.288l.03-1.071c2.346-1.38 3.078-.946 6.031-1.032"/><path fill="#FDFDFD" d="M90.464 283.379c-1.575-5.824-2.707-10.781-2.737-16.84-.183-37.232 38.535-63.925 68.314-33.28-1.428 1.158-2.885 2.396-4.389 3.441l4.625 4.836c-1.629-.065-1.376-.224-3.015-1.021-6.416-3.86-10.843-3.805-17.994-3.791-4.378 1.273-9.014 2.598-12.373 5.941-10.605 8.501-14.783 22.93-12.816 36.072 2.246-3.5 3.613-3.847 7.209-5.839.585 3.106 1.114 6.169 1.9 9.232 1.725 4.116 2.362 5.081 4.988 8.703-1.609 1.142-3.151 2.172-4.659 3.457l3.805 4.364c6.174 5.358 10.751 6.105 18.679 6.456l.426 1.859c-3.792.823-8.683-.539-12.549-1.328-6.419 4.125-21.545-2.966-26.113-8.266-3.623-.146-8.627-5.972-11.248-8.605-3.632-.661-5.354-.905-8.115-3.288l.03-1.071c2.346-1.38 3.078-.946 6.031-1.032"/><path fill="#1A0A03" d="M90.464 283.379c-1.575-5.824-2.707-10.781-2.737-16.84-.183-37.232 38.535-63.925 68.314-33.28-1.428 1.158-2.885 2.396-4.389 3.441l4.625 4.836c-1.629-.065-1.376-.224-3.015-1.021-6.416-3.86-10.843-3.805-17.994-3.791-6.848-2.237-14.043-.808-20.358 2.401-9.785 4.972-15.804 16.204-19.928 18.115-3.514 15.649-1.626 27.585 8.783 40.135-3.623-.146-8.627-5.972-11.248-8.605-3.632-.661-5.354-.905-8.115-3.288l.03-1.071c2.346-1.38 3.078-.946 6.031-1.032"/><path fill="#D6D5D4" d="M94.982 257.241a42 42 0 0 1 9.104-17.54c13.044-15.099 32.56-16.195 47.566-3.001l4.625 4.836c-1.629-.065-1.376-.223-3.015-1.02-6.416-3.86-10.843-3.806-17.994-3.792-6.848-2.237-14.043-.807-20.358 2.402-9.785 4.971-15.804 16.204-19.928 18.115"/><path fill="#336524" d="M110.08 278.738c2.247-3.501 3.613-3.847 7.209-5.84.585 3.107 1.114 6.169 1.9 9.233 1.726 4.116 2.362 5.081 4.988 8.702-1.608 1.142-3.151 2.173-4.659 3.458l3.805 4.364c6.174 5.358 10.751 6.105 18.679 6.456l.427 1.859c-3.792.822-8.683-.539-12.549-1.329-12.662-6.036-17.333-13.476-19.8-26.903"/><path fill="#4A8032" d="M119.516 294.291c-2.08-2.943-4.634-6.601-4.284-10.149 1.413-1.827 1.145-1.269 3.956-2.011 1.725 4.116 2.361 5.081 4.988 8.703-1.609 1.142-3.151 2.172-4.66 3.457"/><path fill="#6FA74E" d="m159.943 288.471 3.024 2.876c-5.919 7.904-10.786 12.092-20.966 13.764-7.927-.351-12.504-1.098-18.679-6.456l-3.804-4.364c1.508-1.285 3.05-2.315 4.659-3.457l.549.18c1.253 1.261 2.426 2.524 3.788 3.661a23.32 23.32 0 0 0 15.39 3.776c7.384-.843 11.627-4.558 16.039-9.98"/><path fill="#ACD88F" d="m124.177 290.832.549.18c1.253 1.261 2.426 2.525 3.788 3.661-1.993 2.079-2.579 3.063-5.192 3.981l-3.804-4.365c1.508-1.285 3.05-2.315 4.659-3.457"/><path fill="#1E4214" d="M122.895 242.666c-1.463 3.051-3.425 5.055-5.307 7.817-5.346 7.849-7.587 14.615-6.657 24.189l.332.341c1.262-1.284 2.484-1.68 4.098-2.369 3.494-4.224.899-9.866 1.622-15.171.011-.082 2.45-1.099 2.86-1.26 1.307-2.778 2.459-5.756 4.452-8.025l.979-.123c-5.26 9.692-8.054 12.29-7.986 24.834-3.596 1.992-4.963 2.339-7.21 5.839-1.966-13.142 2.211-27.571 12.817-36.072M164.196 280.234c.828 1.611 1.173 2.002 1.42 3.802-.69 2.508-1.186 5.243-2.649 7.31l-3.024-2.876c2.126-3.431 2.698-4.578 4.253-8.236"/><path fill="#0E0502" d="M124.725 291.013c1.315-2.352.383-1.629 2.719-2.454 2.488.554 1.483-.033 3.199 1.694.412 2.33.557 1.233-.519 3.398l-1.612 1.023c-1.361-1.136-2.535-2.399-3.787-3.661"/><path fill="#030302" d="M164.195 280.235c.567-3.546 1.291-5.704 2.351-9.083-.165 4.377-.216 8.559-.931 12.884-.247-1.8-.592-2.19-1.42-3.801"/><path fill="#73716E" d="M153.262 240.516c1.639.797 1.386.955 3.015 1.02 1.152.89.697.332 1.338 1.699-1.95-.319-2.832-1.402-4.353-2.719"/><path fill="#FDFDFD" d="M135.521 241.501a9.284 9.284 0 1 1 3.602 18.2 9.285 9.285 0 0 1-3.602-18.2"/><path fill="#030302" d="M274.594 306.722c-6.856-1.319-7.825-4.228-12.878-6.428l-1.015.978c-1.525-.788-2.495-1.973-3.377-3.481-17.311-29.597 3.228-84.736 43.163-76.422 8.72 1.816 18.431 9.053 23.024 16.667 9.591 12.593 10.065 30.12 5.843 44.817 2.072-.052 4.893-.446 6.438.649-.532 2.066-8.468 5.713-10.707 7.732-.431.388-4.406 4.016-4.483 4.069-1.799 1.587-2.944 3.02-5.322 3.144-3.489 3.8-17.448 9.982-22.497 7.769l-.815-.89c-6.355 1.991-10.614 3.083-17.374 1.396"/><path fill="#FDFDFD" d="M284.652 237.395c3.239-5.735 21.649 1.846 25.552 4.686 5.072 3.69 11.173 14.188 14.714 15.512-1.307-4.601-3.448-8.241-5.108-12.692-.798-3.271-2.181-3.001-.475-6.515 2.758-1.06 1.413-.996 4.175-.35 9.592 12.593 10.066 30.12 5.844 44.818 2.072-.052 4.893-.447 6.438.648-.532 2.067-8.468 5.713-10.707 7.732-.431.388-4.406 4.017-4.484 4.069-1.798 1.587-2.943 3.021-5.321 3.144-3.489 3.8-17.448 9.982-22.497 7.769l-.815-.889c11.36-6.034 16.749-15.119 18.489-27.617 1.473-13.393-3.724-29.469-16.05-36.305-2.286-2.17-6.674-3.151-9.755-4.01"/><path fill="url(#c)" d="M319.81 244.901c-.798-3.271-2.181-3.001-.475-6.515 2.758-1.06 1.413-.997 4.175-.35 9.592 12.593 10.066 30.12 5.844 44.818 2.072-.052 4.893-.447 6.438.648-.532 2.067-8.468 5.713-10.707 7.732-.431.388-4.406 4.016-4.484 4.069l-1.941-.902.468-.7c7.622-11.589 8.519-22.782 5.79-36.109-1.307-4.6-3.448-8.24-5.108-12.691"/><path fill="#030302" d="m318.66 294.4 1.941.903c-1.799 1.587-2.944 3.02-5.322 3.144z"/><path fill="#D6D5D4" d="M262.172 244.843c6.33-8.445 13.058-14.753 23.978-16.424 15.745-2.409 24.78 5.53 33.66 16.483 1.661 4.451 3.802 8.09 5.108 12.691-3.541-1.324-9.642-11.821-14.713-15.511-3.904-2.84-22.313-10.422-25.552-4.686-10.852-.054-13.477.759-22.481 7.447"/><path fill="url(#d)" d="M302.518 274.767c3.113-.781 5.328 1.233 7.938 2.943-1.74 12.498-7.128 21.583-18.488 27.617-6.355 1.991-10.614 3.082-17.374 1.396l3.84-.351.38-.791c7.6-.247 9.591-1.032 15.603-5.141 1.936-1.483 3.976-3.352 5.832-4.973l-4.309-4.772c2.609-3.285 3.223-4.733 4.794-8.47.82-2.517 1.246-4.872 1.784-7.458"/><path fill="#4A8032" d="M300.733 282.225c2.252 1.453 3.277 1.792 4.401 4.082.454 3.672-2.234 6.777-4.886 9.159l-4.309-4.772c2.609-3.284 3.224-4.733 4.794-8.469"/><path fill="#6FA74E" d="M260.993 290.109c8.388 8.625 18.472 11.982 29.491 5.499l3.933 4.831c-6.012 4.109-8.003 4.894-15.603 5.14-10.376-2.493-13.974-4.397-20.078-12.995z"/><path fill="#1E4214" d="M294.406 241.404c12.327 6.836 17.523 22.912 16.05 36.305-2.611-1.711-4.825-3.724-7.939-2.943.038-1.978-.413-13.176-.238-13.511q.67 5.695 1.414 11.38c2.117.809 2.156.666 4.33.386 6.05-4.123-4.174-20.634-7.769-25.014-2.048-2.497-4.261-3.544-5.848-6.603"/><path fill="#ACD88F" d="m295.94 290.695 4.309 4.772c-1.856 1.621-3.896 3.491-5.832 4.974l-3.933-4.831c1.733-1.685 3.638-3.312 5.456-4.915"/><path fill="#1E4214" d="M258.737 292.585c-2.24-2.71-4.13-11.603-4.153-14.993l.68-.309c2.56 5.842 2.386 7.11 5.729 12.827z"/><path fill="#FDFDFD" d="M271.593 242.71a9.152 9.152 0 0 1 11.782 10.848 9.15 9.15 0 0 1-17.647.48 9.15 9.15 0 0 1 5.865-11.328"/><path fill="#FEB5A8" d="m73.784 28.07 1.407-1.74 5.542 4.368c21.439 17.93 29.626 53.063 31.239 79.644-3.717-1.306-6.999-2.778-10.892-1.846-1.872 1.981-.978 3.243-.197 5.749-2.885 2.788-7.142 3.806-8.035 5.879 1.314 3.258 4.338 3.744 7.457 4.785-3.06 2.199-6.522 4.538-9.333 6.997-8.414 8.083-12.021 12.365-18.551 22.05-17.186-28.114-20.203-61.046-13.153-92.93 1.16-5.245 2.916-12.722 5.122-17.514 2.334-6.976 4.338-11.474 8.049-17.813z"/><path fill="#FE8F85" d="M80.734 30.7c21.44 17.93 29.626 53.062 31.24 79.644-3.718-1.307-7-2.778-10.893-1.847-1.872 1.981-.978 3.243-.197 5.749-2.885 2.788-7.142 3.806-8.035 5.879 1.314 3.258 4.339 3.744 7.457 4.785-3.06 2.199-6.522 4.538-9.333 6.997-1.037-4.578-2.593-8.94-3.427-13.69-2.61-14.888-.195-27.59 3.765-41.841 1.287.548.653.387 1.884.542 1.444-5.068 1.562-12.526 2.077-17.848 1.01-10.438-12.646-20.033-14.538-28.37"/><path fill="#FDF0DC" d="m72.44 25.7 1.345 2.37c-3.013 4.088-6.287 11.235-8.758 15.947l-.636-.505c2.334-6.976 4.337-11.474 8.048-17.813"/><path fill="#FEB5A8" d="M333.733 24.201c3.011 3.147 7.434 10.62 8.815 11.374l.448-.251c3.043 4.97 5.038 12.154 6.575 17.775 9.21 33.674 8.076 66.054-7.667 97.25-5.997-7.726-11.653-14.468-19.203-20.874l-8.318-5.64c2.996-1.325 5.231-1.644 6.093-4.887-1.26-2.278-6.124-4.057-7.608-5.209-.565-.44 1.129-3.154-.716-5.964-3.405-1.284-7.088.664-10.529 1.962-.275-22.411 5.276-48.345 16.894-67.708 4.38-7.414 8.383-12.589 15.216-17.828"/><path fill="#FE8F85" d="m318.517 42.03 1.198.492c-3.612 10.438-4.434 14.804-2.702 26.05.325 2.119.537 5.498 1.283 7.353l1.248-1.898.846.22c7.147 15.418 7.557 38.732 2.311 55.229l-8.318-5.641c2.996-1.325 5.231-1.644 6.093-4.887-1.26-2.278-6.124-4.056-7.608-5.209-.565-.439 1.129-3.154-.716-5.964-3.405-1.284-7.088.664-10.529 1.962-.275-22.411 5.276-48.345 16.894-67.708"/><defs><linearGradient id="a" x1="210.06" x2="205.894" y1="320.769" y2="382.133" gradientUnits="userSpaceOnUse"><stop stop-color="#451D0A"/><stop offset="1" stop-color="#742810"/></linearGradient><linearGradient id="b" x1="169.551" x2="114.528" y1="280.18" y2="254.165" gradientUnits="userSpaceOnUse"><stop/><stop offset="1" stop-color="#0B1A08"/></linearGradient><linearGradient id="c" x1="313.21" x2="336.872" y1="264.376" y2="268.537" gradientUnits="userSpaceOnUse"><stop/><stop offset="1" stop-color="#2E190F"/></linearGradient><linearGradient id="d" x1="280.637" x2="306.863" y1="289.053" y2="292.587" gradientUnits="userSpaceOnUse"><stop stop-color="#154E1C"/><stop offset="1" stop-color="#366323"/></linearGradient></defs></svg>