<svg xmlns="http://www.w3.org/2000/svg" width="418" height="418" fill="none"><path fill="#955B1F" d="M261.025 93.45c7.61-32.174 28.239-64.724 59.173-79.007 2.804-1.293 4.194-1.801 7.066-.663 3.582 5.94 4.561 1.854 7.807 5.432.685 2.677-1.507 4.961-.827 6.082 21.559 35.728 26.164 87.817 6.27 125.121 4.231 4.986 8.903 13.391 11.799 19.245 13.195 26.715 16.018 48.452 16.373 77.389 6.772 3.827 21.18 17.102 22.49 24.933-.447.655-2.088 3.288-1.923 3.723 3.086 8.058 6.968 12.638 5.407 21.896-1.439 1.721-1.176 1.347-4.084 1.953l-.784.159c-.679 7.618 4.274 16.435-.386 25.203-2.124 4.004-5.461 2.517-6.514 4.892-5.297 11.952-8.426 18.21-17.408 27.964-27.872 27.872-64.249 34.7-100.841 36.867-2.051.116-9.344 3.527-12.019 4.372-27.517 8.725-58.23 9.552-85.697.202-9.572-3.3-13.295-5.131-23.483-5.486-23.995-1.035-48.233-7.795-69.005-19.906-19.571-11.414-31.689-24.982-38.68-46.358l-2.21 1.586c-.925.104-1.185.361-1.706-.294-7.591-9.552-3.18-20.965-3.003-29.887-1.911.325-3.274.852-4.893-.048-2.596-4.391.728-14.034 2.99-18.198 3.657-6.742.794-3.876.025-7.899 3.904-10.091 14.677-19.979 23.694-25.668-.436-34.864 7.653-66.269 27.75-95.171-21.237-34.042-15.63-91.342 4.637-124.489 1.35-2.206.162-3.88-.61-6.24 1.584-4.936 5.394-2.85 9.02-8.155 14.339 3.515 28.045 15.734 37.658 26.473 14.327 16.003 23.066 34.161 28.459 54.774l.516-.256c34.119-13.76 69.231-13.115 102.939-.541"/><path fill="#FDF0DC" d="M264.919 100.409c1.629-23.409 21.125-54.804 38.716-70.1 3.325-2.89 15.749-12.858 20.047-12.01-.527 1.372-.723 1.59-1.537 2.835 2.578 1.685 5.884-2.455 8.278 1.472-.44 1.11-.875 2.223-1.292 3.342 1.47 3.361 3.65 6.296 4.672 9.32-3.857-2.184-3.765-4.407-7.635-6.374-9.644-3.542-21.07 23.484-23.458 30.234-6.441 18.224-7.959 35.791-7.09 54.971 4.794-2.984 6.484-3.756 12.154-5.388l-5.015 6.061c2.731.263 5.407.193 7.648 1.591l.159 1.062c-2.1 1.983-4.874 2.459-7.715 3.386 43.89 27.567 61.414 78.633 60.79 128.383 8.903 5.253 12.191 8.382 18.816 16.471l-.214.526c-2.639-.661-3.809-1.083-6.485-1.083-.049.998 7.587 9.104 9.038 11.584 3.876 6.613 4.421 9.222 5.725 16.557-5.486-4.053-8.15-6.154-14.524-8.731 8.181 10.929 11.689 20.573 9.724 34.436a166 166 0 0 1-.668 4.267c-1.126-1.604-3.612-4.947-4.347-6.57l-.894-.343c-1.415.784-1.023 6.062-1.512 8.126-10.838 45.316-68.346 62.706-107.448 64.58l-.551-.619.098-1.065c-7.09 1.714-16.293 6.349-25.239 8.633a141.34 141.34 0 0 1-73.887-.692c-7.607-2.21-15.661-5.933-22.876-7.672l.397 1.268-.682.361c-39.795-.539-107.086-25.025-108.031-72.705l-.81-.839a449 449 0 0 1-5.5 7.899q-.586-2.554-1.078-5.125c-2.514-13.447 1.876-22.852 9.261-33.561-6.115 2.388-9.316 4.819-14.675 8.566 2.843-13.93 6.755-19.673 17.37-28.809-3.79.545-5.718 1.115-9.378 2.174 7.211-8.162 10.863-12.289 20.31-17.506-.134-48.776 17.276-100.312 59.777-128.069-2.703-.842-6.694-1.733-8.369-3.87l.401-.996c2.612-1.3 5.252-1.117 8.234-1.261-2.036-2.24-3.477-4.138-5.303-6.525 5.784 1.98 7.862 2.9 12.69 6.322.227-26.908-4.677-64.89-26.087-84.646-1.456-1.344-3.55-1.222-5.34-.828l-.978.685-3.83-.581c2.311-3.437 1.78-3.027.285-7.189 2.174-2.092 6.007.398 7.834-.962a96 96 0 0 1-1.434-2.625l.667-.411c3.733 1.044 4.767 2.67 7.919 4.435 15.298 8.562 29.378 25.527 37.997 40.825a140.9 140.9 0 0 1 14.139 36.936 139.92 139.92 0 0 1 108.177-1.21q1.284.519 2.559 1.057"/><path fill="#EFB46A" d="M264.919 100.409c1.629-23.409 21.125-54.804 38.716-70.1 3.325-2.89 15.749-12.858 20.047-12.01-.527 1.372-.723 1.59-1.537 2.835 2.578 1.685 5.884-2.455 8.278 1.472-.44 1.11-.875 2.223-1.292 3.342 1.47 3.361 3.65 6.296 4.672 9.32-3.857-2.184-3.765-4.407-7.635-6.374-9.644-3.542-21.07 23.484-23.458 30.234-6.441 18.224-7.959 35.791-7.09 54.971 4.794-2.984 6.484-3.756 12.154-5.388l-5.015 6.061c2.731.263 5.407.193 7.648 1.591l.159 1.062c-2.1 1.983-4.874 2.459-7.715 3.386 43.89 27.567 61.414 78.633 60.79 128.383 8.903 5.253 12.191 8.382 18.816 16.471l-.214.526c-2.639-.661-3.809-1.083-6.485-1.083-.049.998 7.587 9.104 9.038 11.584 3.876 6.613 4.421 9.222 5.725 16.557-5.486-4.053-8.15-6.154-14.524-8.731 8.181 10.929 11.689 20.573 9.724 34.436a166 166 0 0 1-.668 4.267c-1.126-1.604-3.612-4.947-4.347-6.57l.318-.637c-4.549-11.97-9.846-19.52-20.91-26.451-1.745-.637-1.188-.233-2.449-1.537 1.971-.539 4.408-.031 6.515.227l.361-.619c-8.976-5.841-12.54-6.343-23.323-5.553 6.509-20.555 4.348-47.025-5.804-65.211-25.46-45.592-71.413-31.074-82.619 15.877-5.841 24.456-8.125 41.827.349 65.456-7.2-3.313-13.605-6.84-21.767-4.489-.018 1.262.043 3.833-.141 4.966l-1.163-.373c-.741-5.842-.245-7.397-5.952-9.711-10.225-3.001-28.007-7.299-34.383 4.922-.987.913-.769.466-1.135 1.648l-.913.189-.537-1.886c-2.286-1.316-7.152-.685-9.664-.049a39.7 39.7 0 0 0-10.994 4.666c8.765-27.578 5.974-56.595-6.267-82.594-9.527-20.236-32.276-34.344-53.748-22.189-30.707 17.383-37.148 57.391-28.6 88.698-10.66-1.096-17.394.851-25.875 7.691 4.044-1.029 8.223-2.15 12.3-2.952-7.009 3.301-12.2 7.183-17.314 13.116-2.523 2.927-9.27 12.228-7.72 15.828a449 449 0 0 1-5.5 7.899q-.586-2.554-1.078-5.125c-2.514-13.447 1.876-22.852 9.261-33.561-6.115 2.388-9.316 4.819-14.675 8.566 2.843-13.93 6.755-19.673 17.37-28.809-3.79.545-5.718 1.115-9.378 2.174 7.211-8.162 10.863-12.289 20.31-17.506-.134-48.776 17.276-100.312 59.777-128.069-2.703-.842-6.694-1.733-8.369-3.87l.401-.996c2.612-1.3 5.252-1.117 8.234-1.261-2.036-2.24-3.477-4.138-5.303-6.525 5.784 1.98 7.862 2.9 12.69 6.322.227-26.908-4.677-64.89-26.087-84.646-1.456-1.344-3.55-1.222-5.34-.828l-.978.685-3.83-.581c2.311-3.437 1.78-3.027.285-7.189 2.174-2.092 6.007.398 7.834-.962a96 96 0 0 1-1.434-2.625l.667-.411c3.733 1.044 4.767 2.67 7.919 4.435 15.298 8.562 29.378 25.527 37.997 40.825a140.9 140.9 0 0 1 14.139 36.936 139.92 139.92 0 0 1 108.177-1.21q1.284.519 2.559 1.057"/><path fill="#F6766F" d="M187.152 293.469c1.311-1.335 3.962-4.789 5.04-5.597 4.191-3.153 11.613-4.666 16.903-4.647 8.799.024 18.155 1.929 22.282 10.489-.019 1.261.043 3.833-.141 4.965l-1.164-.373c-.74-5.842-.244-7.397-5.951-9.711-10.226-3.001-28.007-7.299-34.383 4.923-.988.912-.769.465-1.136 1.647l-.912.189z"/><path fill="#FDF0DC" d="M209.425 109.76c5.713.591 9.601 6.231 10.801 11.424 4.47 19.291.257 37.889-9.705 54.582l-.735-.092c-9.889-14.388-19.212-55.834-.361-65.914M248.655 125.732c9.51 2.575 9.534 13.466 7.96 21.424-1.916 9.679-6.478 17-14.138 23.16-1.745.955-1.947 1.5-3.447 1.206-7.893-10.767-4.268-39.706 9.625-45.79M170.14 125.707c16.487 2.721 18.047 33.287 11.434 45.612l-1.23.123c-4.2-2.382-6.434-3.937-9.373-7.954-7.094-9.691-12.783-29.798-.831-37.781"/><path fill="url(#a)" d="m207.508 314.74 3.619.27-.018 10.593c7.103 10.023 21.143 12.858 31.589 5.59 4.249-2.958 2.259-8.083 6.196-10.317 1.886.281 1.078-.141 2.37 1.549 1.102 6.404-6.166 11.774-11.052 14.511-3.754 17.506-10.893 47.84-36.641 41.9-13.096-3.024-19.411-21.461-22.141-32.844-.848-3.349-1.22-8.339-3.991-10.182 1.322-1.243 1.468-1.237 3.001-2.241 11.184 3.551 19.537 1.414 27.087-7.532z"/><path fill="#FE8F85" d="M198.993 349.818c2.633.821 2.755.87 4.953 2.48 4.029 1.188 9.142.949 13.159-.135l3.331 1.115c4.157 2.088 5.4 3.319 8.633 6.643-3.698 17.567-26.219 21.792-36.007 6.656-1.569-2.431-2.853-4.604-2.304-7.415l-1.02-1.249c2.385-4.868 4.613-5.572 9.255-8.095"/><path fill="#7F271B" d="M198.993 349.818c2.633.821 2.755.87 4.953 2.48-6.405 1.059-8.339 2.382-13.188 6.864l-1.02-1.249c2.385-4.868 4.613-5.572 9.255-8.095"/><path fill="#FDFDFD" d="m206.132 333.256 3.141-3.318c3.852 3.539 5.401 4.714 10.085 7.329 1.041.312 1.763.49 2.762.924-1.292 5.481-1.36 7.317-5.903 10.826l2.376 1.978-1.488 1.169c-4.017 1.084-9.13 1.323-13.159.135-2.198-1.61-2.32-1.659-4.953-2.48a17.02 17.02 0 0 1-3.65-11.756l1.005.043c.189 1.935-.08 2.755.912 4.035l.649-.141c-.435-2.033-.722-2.694-.276-4.758 3.791-.808 5.315-1.959 8.499-3.986"/><path fill="#4A1907" d="m195.343 338.062 1.005.043c.189 1.935-.08 2.756.912 4.035l.649-.14c3.968 9.098 9.344 8.927 18.308 7.017l2.376 1.977-1.488 1.17c-4.017 1.084-9.13 1.322-13.159.135-2.198-1.611-2.32-1.66-4.953-2.48a17.03 17.03 0 0 1-3.65-11.757"/><path fill="#D8D2CF" d="m206.131 333.256 3.141-3.318c3.851 3.539 5.4 4.714 10.085 7.329l-1.507.759c-2.792-.006-4.518-.992-7.115-2.069l-1.028 2.369-.907-1.249-.11-.729c-.306-2.167-.808-1.996-2.559-3.092"/><path fill="#D6D5D4" d="M197.633 337.242c3.79-.808 5.315-1.959 8.499-3.986 1.751 1.096 2.253.924 2.559 3.092-4.623 1.206-6.411 2.125-11.058.894M208.801 337.078l.906 1.249 1.029-2.37c-.086 3.686.055 7.978-.888 11.456-.759-2.682-1.041-7.482-1.047-10.335"/><path fill="#A0442F" d="m222.119 338.191.196-1.023c1.415.808.803.245 1.433 2.21l.913-.9c3.618.129 7.91.313 11.474-.061-1.029 5.223-2.755 15.522-5.982 19.404l-1.084 2.1c-3.233-3.325-4.476-4.555-8.633-6.643l-3.331-1.115 1.488-1.169-2.376-1.978c4.543-3.508 4.61-5.345 5.902-10.825"/><path fill="#4A1907" d="m222.119 338.191.196-1.023c1.415.808.803.245 1.433 2.21-.716 5.193-1.292 7.826-5.155 11.616l-2.376-1.978c4.543-3.508 4.61-5.345 5.902-10.825"/><path fill="#7F271B" d="M220.436 353.278c4.616-1.635 6.802 1.439 9.717 4.544l-1.084 2.1c-3.233-3.325-4.476-4.556-8.633-6.644"/><path fill="#A0442F" d="M183.006 338.039c4.953.6 7.422 1.016 12.337.025a17.02 17.02 0 0 0 3.65 11.756c-4.642 2.522-6.871 3.227-9.255 8.094-3.496-2.835-5.845-15.289-6.732-19.875"/><path fill="#FE8F85" d="M189.737 293.518c6.376-12.222 24.158-7.923 34.383-4.923 5.707 2.314 5.211 3.87 5.952 9.711-2.645 1.757-7.948 2.1-9.35 3.704-7.825 8.983-12.901 19.147-20.849.907-3.619-2.107-6.766-2.578-10.033-4.654-1.391-.882-.91-.875-1.238-3.098.366-1.182.148-.735 1.135-1.647"/><path fill="#FEB5A8" d="M189.738 293.518c6.376-12.222 24.158-7.923 34.383-4.923 1.182 1.635 2.755 3.374 2.976 5.29l-.637.637c-7.421-.171-14.579-.759-21.976-.772-3.796-.006-11.087 1.482-13.951.6z"/><path fill="#F6766F" d="m187.689 295.354.913-.19c.328 2.223-.153 2.217 1.238 3.098 3.267 2.076 6.414 2.548 10.033 4.654 7.948 18.24 13.024 8.076 20.849-.906 1.402-1.605 6.705-1.947 9.35-3.705l1.163.374c-3.129 9.135-11.242 13.832-20.108 16.33l-3.618-.27c-9.405-1.236-19.715-9.117-19.82-19.385"/><path fill="#4A1907" d="M177.441 335.809c-6.056-1.647-12.93-11.982-7.33-14.848 2.801 1.518 2.444 3.264 3.093 6.105.718 3.141 4.668 5.02 7.238 6.502-1.533 1.004-1.679.998-3.001 2.241"/><path fill="url(#b)" d="M277.189 304.409c-.723-.153-.919-.171-1.696-.477a31.54 31.54 0 0 1-17.096-16.483c-10.342-22.931-.569-60.784 23.929-71.242 6.833-2.915 16.036-3.539 22.937-.649 33.34 10.917 37.069 66.582 8.18 84.688-2.112 1.328-5.406 2.131-7.794 1.194-2.909 3.484-6.276 3.159-11.126 3.87-2.388-.466-5.015-.833-7.433-1.225l-1.66.52c-3.716.588-5.021-.563-8.241-.196"/><path fill="#FDFDFD" d="M305.263 215.559c33.34 10.917 37.069 66.582 8.181 84.687-2.113 1.329-5.407 2.131-7.795 1.194-2.908 3.484-6.276 3.16-11.126 3.87-2.388-.465-5.014-.833-7.433-1.224 5.309-1.648 9.185-2.505 13.593-5.983 17.537-12.001 16.998-38.801 5.468-55.064-12.148-13.091-27.168-13.312-40.234-1.598l-1.917-.637 1.819-3.484c8.002-14.169 22.018-18.767 37.411-15.718l1.145-.233c2.309.864 4.372 2.003 6.509.588.478-2.198.576-1.163-.251-3.221-2.682-.985-3.441-1.102-5.37-3.177"/><path fill="#1A0A03" d="M305.263 215.559c33.34 10.917 37.069 66.582 8.181 84.687-2.113 1.329-5.407 2.131-7.795 1.194 18.792-12.135 26.739-29.874 20.384-51.941-3.239-13.759-10.667-21.492-22.803-27.897l1.145-.233c2.309.864 4.372 2.003 6.509.588.478-2.198.576-1.163-.251-3.221-2.682-.985-3.441-1.102-5.37-3.177"/><path fill="#D6D5D4" d="M265.818 237.32c8.003-14.169 22.019-18.767 37.412-15.718 12.136 6.405 19.563 14.138 22.802 27.897-4.261-2.082-4.151-5.37-6.747-8.511-5.529-6.705-13.997-11.701-22.643-13.146-10.189-1.696-22.16 4.488-30.824 9.478"/><path fill="#371505" d="M306.151 243.039c11.53 16.263 12.069 43.063-5.468 55.065l-.196-1.207 1.378-1.212-.055-.465-2.37-.662c-1.953-1.359-2.437-1.439-4.733-2.235l4.99-4.359 1.984-2.333a503 503 0 0 1 3.65-7.544c2.798-10.133.41-20.42-4.158-29.586 1.684-1.739 3.349-3.656 4.978-5.462"/><path fill="#592D06" d="M305.331 278.088c2.4.422 3.9.526 6.08 1.555-1.237 5.664-5.242 11.677-9.601 15.577l-2.37-.661c-1.953-1.359-2.437-1.439-4.733-2.235l4.99-4.36 1.984-2.333a503 503 0 0 1 3.65-7.543"/><path fill="#7A4202" d="M301.681 285.631c2.045.986 2.449 1.035 3.723 2.963-.171 3.362-2.008 3.925-3.594 6.626l-2.37-.662c-1.953-1.359-2.437-1.439-4.733-2.235l4.99-4.359z"/><path fill="#916850" d="M299.697 287.965c.674 2.088 1.39 3.447.894 5.547l-1.151 1.047c-1.953-1.359-2.437-1.439-4.733-2.235z"/><path fill="#592D06" d="M285.431 304.605c-5.982-2.535-20.518-8.333-22.171-14.854.918-1.396.881-1.672 2.308-2.425 4.072 1.347 6.57 5.542 11.058 7.164 6.479 2.345 12.246.551 18.082-2.167 2.296.796 2.78.875 4.733 2.235l2.369.661.056.465-1.378 1.212.196 1.207c-4.409 3.478-8.285 4.335-13.593 5.982z"/><path fill="#D6D5D4" d="m264 240.805 1.917.637c-1.794 2.179-4.042 5.351-5.774 7.678 1.249-3.325 1.867-5.303 3.857-8.315"/><path fill="#FDFDFD" d="M277.08 239.55c5.18-.919 10.134 2.498 11.12 7.666.979 5.167-2.382 10.158-7.538 11.205a9.61 9.61 0 0 1-9.154-3.117 9.6 9.6 0 0 1-1.8-9.503 9.58 9.58 0 0 1 7.372-6.251"/><path fill="#1A0A03" d="M104.377 267.727c1.24-28.147 28.261-48.108 50.204-24.81l1.021-1.555 2.241 4.378.749-.735.603 1.671.746.172.423-1.035c-.811-2.241-1.578-4.47-2.691-6.582l1.127-.374c9.686 19.931 9.318 53.008-13.641 64.115-5.747 2.78-9.937 2.878-16.03 2.976l-.262-1.764.82-.049.19-.857c-7.237-.508-12.526-4.739-17.133-9.858-6.642-8.254-7.988-15.559-8.367-25.693"/><path fill="#592D06" d="m123.134 292.029.779.417c18.62 9.778 26.337-6.534 30.538-4.697 3.585 9.026-17.654 15.828-24.764 16.386l.19-.858c-7.237-.508-12.526-4.739-17.133-9.858l.737-3.318c1.679-1.605 1.648-1.525 3.644-2.425l.575-.184 4.742 4.341z"/><path fill="#371505" d="m112.744 293.42.737-3.318c2.888 9.135 12.502 8.866 16.396 13.176-7.237-.508-12.526-4.739-17.133-9.858"/><path fill="#916850" d="m117.701 287.492 4.742 4.341c-2.032 1.286-3.335 2.523-5.554 1.158-.801-2.045-.276-3.148.237-5.315z"/><path fill="#4A1907" d="m104.377 267.727.939 2.26c2.918.643 2.05.857 4.593.043 2.046-2.088 1.688-5.052 1.68-7.948l.371.165c-.454 9.663-.154 16.428 5.734 24.676l.006.57-.575.183c-1.996.9-1.965.821-3.644 2.425l-.737 3.319c-6.642-8.254-7.988-15.559-8.367-25.693"/><path fill="#2E1B0E" d="M117.695 286.924c2.974-1.647 5.258-2.529 7.009 1.065-.146 2.29-.282 2.235-1.569 4.041l-.691-.196-4.743-4.341z"/><path fill="#D6D5D4" d="m155.603 241.361 2.241 4.378-.308.6c-1.35-.404-1.92-1.916-2.954-3.422z"/><path fill="#FDFDFD" d="M129.166 239.469c5.193-1.035 10.249 2.309 11.331 7.495 1.08 5.18-2.217 10.268-7.39 11.395-5.24 1.145-10.406-2.205-11.501-7.452-1.096-5.254 2.301-10.391 7.56-11.438"/><path fill="#1A0A03" d="M93.17 247.478c-5.964 16.245-1.532 37.853 12.467 48.501 2.829 2.149 6.561 3.9 8.986 6.049l-.932.754c-9.995-.245-19.683-11.597-23.597-20.268-10.02-22.196-2.834-55.511 20.813-66.098 19.919-8.921 39.91 3.551 47.893 22.441l-1.127.374c1.113 2.112 1.88 4.341 2.691 6.582l-.423 1.035-.746-.172-.603-1.671-.748.734-2.241-4.378c-1.108-2.069-2.634-4.329-3.908-6.331-19.487-6.319-28.924-12.436-48.156 1.874-4.845 3.6-5.026 8.884-10.369 10.574"/><path fill="#D6D5D4" d="M93.17 247.478c9.881-28.411 38.046-38.085 58.525-12.448-19.487-6.319-28.924-12.436-48.156 1.874-4.846 3.6-5.027 8.884-10.37 10.574"/><path fill="#0E0502" d="M287.09 304.086c2.419.392 5.046.759 7.434 1.225-6.338 1.708-11.144 1.236-17.335-.901 3.221-.367 4.525.784 8.242.196zM129.129 305.947c-1.223-.104-1.502-.202-2.703-.478l.222-.716 2.218-.569z"/><path fill="#FEB5A8" d="m86.775 29.553 3.831.581.979-.685c7.64 7.678 10.648 12.25 15.257 21.962 8.408 17.404 11.125 36.891 11.429 56.054-3.826-1.344-6.731-3.105-10.143-1.474-.817 1.837-.416 3.139-.163 5.161-1.935 2.775-5.91 3.186-7.42 5.987 1.444 3.036 3.58 3.413 6.862 4.778l-7.7 5.905c-7.079 5.768-12.815 12.532-18.105 19.921-19.212-37.82-12.408-81.273 5.173-118.19"/><path fill="#FE8F85" d="M106.842 51.41c8.407 17.404 11.124 36.89 11.428 56.054-3.826-1.344-6.731-3.105-10.143-1.474-.816 1.837-.416 3.138-.163 5.161-1.934 2.775-5.909 3.186-7.419 5.987 1.443 3.036 3.579 3.412 6.861 4.778l-7.7 5.905c-.336-3.254-1.962-9.331-2.604-13.122-1.968-11.611-.358-26.484 4.498-37.19.374 1.857.229 2.812 1.293 4.033.653-1.28.64-1.194.793-2.618.187-7.982 3.142-17.377 2.071-24.684z"/><path fill="#F5A78A" d="m90.606 30.134.978-.685c7.64 7.678 10.648 12.25 15.257 21.962l-1.084 2.83c-4.26-6.682-7.795-15.091-14.123-21.166-.94-.903-.652-1.186-1.028-2.94"/><path fill="#FEB5A8" d="M326.168 28.893c3.87 1.967 3.778 4.19 7.636 6.374 1.476 3.234 3.423 7.186 4.555 10.46 1.586 3.092 2.854 6.924 3.797 10.26 8.541 30.145 8.15 61.902-5.04 90.448a120.2 120.2 0 0 0-18.693-19.921c-2.345-1.751-5.211-3.506-7.697-5.118 2.847-1.12 6.001-1.701 6.748-4.886-1.286-1.916-5.566-3.714-7.844-4.882.723-2.453 1.549-3.816.043-5.996-3.441-1.207-6.233.325-9.687 1.556.013-22.473 1.709-33.029 9.528-53.892 2.847-7.216 9.38-19.69 16.367-23.516z"/><path fill="#FE8F85" d="M299.986 107.189c.013-22.473 1.709-33.03 9.528-53.892 1.971 4.44.992 5.118 1.861 7.815.557 3.686 1.886 11.005 2.027 14.447 1.01.27 2.014.496 3.049.655l.233 1.234c5.505 18.622 7.121 30.369 1.739 49.067-2.345-1.751-5.211-3.507-7.697-5.118 2.847-1.12 6.001-1.701 6.748-4.886-1.286-1.916-5.566-3.714-7.844-4.882.723-2.453 1.549-3.816.043-5.997-3.441-1.206-6.233.325-9.687 1.557"/><path fill="#F5A78A" d="M313.4 75.559c1.011.269 2.015.496 3.05.654l.232 1.235c-.728 1.325-1.212 2.182-2.063 3.455-1.041-1.108-.986-3.513-1.219-5.344M325.881 29.78c-5.603 11.936-14.157 16.971-14.506 31.33-.869-2.696.11-3.375-1.861-7.815 2.847-7.215 9.38-19.69 16.367-23.516"/><path fill="#FEBFAB" d="M326.168 28.893c3.87 1.967 3.778 4.19 7.635 6.374 1.476 3.234 3.423 7.186 4.556 10.46l-1.751-.587c-2.37-4.178-9.999-13.871-10.44-16.247"/><defs><linearGradient id="a" x1="214.587" x2="215.879" y1="315.463" y2="377.967" gradientUnits="userSpaceOnUse"><stop stop-color="#431B07"/><stop offset="1" stop-color="#813517"/></linearGradient><linearGradient id="b" x1="298.325" x2="275.089" y1="300.687" y2="218.754" gradientUnits="userSpaceOnUse"><stop stop-color="#0C0400"/><stop offset="1" stop-color="#210E05"/></linearGradient></defs></svg>